# xmcd
#
# Track frame offsets:
#	150
#	20118
#	42794
#
# Disc length: 848 seconds
#
# Revision: 0
# Processed by: cddbd v1.4PL0 Copyright (c) Steve Scherf et al.
# Submitted via: dBpowerAMP V4.0
#
DISCID=1e034e03
DTITLE=Chris Difford - Cowboys Are My Weakness
DYEAR=2002
DGENRE=Undefined
TTITLE0=Cowboys Are My Weakness
TTITLE1=Black Coffee
TTITLE2=Lamas Fayre
EXTD=CD Single
EXTT0=
EXTT1=
EXTT2=
PLAYORDER=
